<svg xmlns="http://www.w3.org/2000/svg" viewBox="0 0 1024 1024" role="img" aria-labelledby="title desc">
  <title id="title">Director Angel Operator Logo Concept V1</title>
  <desc id="desc">A controlled creative-tool operator holding a cinema camera inside a director frame.</desc>
  <defs>
    <linearGradient id="badge" x1="144" y1="80" x2="880" y2="944" gradientUnits="userSpaceOnUse">
      <stop offset="0" stop-color="#0e1726"/>
      <stop offset="0.54" stop-color="#152235"/>
      <stop offset="1" stop-color="#111827"/>
    </linearGradient>
    <linearGradient id="lens" x1="560" y1="300" x2="760" y2="540" gradientUnits="userSpaceOnUse">
      <stop offset="0" stop-color="#74f0ff"/>
      <stop offset="0.48" stop-color="#1b9aaa"/>
      <stop offset="1" stop-color="#0f4c5c"/>
    </linearGradient>
    <linearGradient id="gold" x1="282" y1="214" x2="756" y2="806" gradientUnits="userSpaceOnUse">
      <stop offset="0" stop-color="#ffd166"/>
      <stop offset="0.52" stop-color="#f59e0b"/>
      <stop offset="1" stop-color="#c2410c"/>
    </linearGradient>
    <filter id="softShadow" x="-20%" y="-20%" width="140%" height="140%">
      <feDropShadow dx="0" dy="24" stdDeviation="28" flood-color="#020617" flood-opacity="0.35"/>
    </filter>
  </defs>

  <rect width="1024" height="1024" rx="226" fill="url(#badge)"/>
  <path
    d="M214 272c0-42 34-76 76-76h444c42 0 76 34 76 76v480c0 42-34 76-76 76H290c-42 0-76-34-76-76V272Z"
    fill="none"
    stroke="#263449"
    stroke-width="26"
  />
  <path
    d="M286 338v-34c0-18 14-32 32-32h84"
    fill="none"
    stroke="#fbbf24"
    stroke-linecap="round"
    stroke-width="24"
  />
  <path
    d="M738 686v34c0 18-14 32-32 32h-84"
    fill="none"
    stroke="#38bdf8"
    stroke-linecap="round"
    stroke-width="24"
  />

  <g filter="url(#softShadow)">
    <path
      d="M402 653c-74-19-122-71-122-139 0-94 86-170 216-170 100 0 176 44 207 111 21 45 14 92-16 128-37 44-96 57-162 48l-8 97c-42 0-81-24-115-75Z"
      fill="#e5e7eb"
    />
    <path
      d="M332 513c0-69 62-119 149-119 70 0 124 30 150 78 15 28 14 58-4 81-24 31-71 43-129 32-18-3-36 9-38 28l-4 45c-74-23-124-76-124-145Z"
      fill="#f8fafc"
    />
    <path
      d="M355 351c16-53 65-91 123-91h70c57 0 106 38 122 91"
      fill="none"
      stroke="url(#gold)"
      stroke-linecap="round"
      stroke-width="34"
    />
    <circle cx="513" cy="310" r="74" fill="#f8fafc"/>
    <path
      d="M463 286c18-31 63-47 106-32 29 10 49 30 56 54-17-9-38-15-62-15-43 0-80 17-100 43-11-14-11-32 0-50Z"
      fill="#111827"
      opacity="0.9"
    />
    <path
      d="M622 424h90c24 0 44 20 44 44v96c0 24-20 44-44 44H534c-24 0-44-20-44-44v-96c0-24 20-44 44-44h31l19-42h92l-54 42Z"
      fill="#111827"
    />
    <path
      d="M736 464l95-52c18-10 40 3 40 23v163c0 21-23 34-41 22l-94-60v-96Z"
      fill="#0f172a"
    />
    <circle cx="622" cy="516" r="76" fill="#0b1220"/>
    <circle cx="622" cy="516" r="54" fill="url(#lens)"/>
    <circle cx="602" cy="492" r="17" fill="#d9fbff" opacity="0.9"/>
    <path
      d="M387 559c20 0 38 12 46 31l58 131c8 18 0 39-18 47-18 8-39 0-47-18l-41-92-39 79c-9 18-31 25-49 16-17-9-24-31-15-48l72-126c7-12 19-20 33-20Z"
      fill="#f8fafc"
    />
    <path
      d="M438 451c20 19 29 43 25 68-5 31-28 56-64 67"
      fill="none"
      stroke="#cbd5e1"
      stroke-linecap="round"
      stroke-width="26"
    />
    <path
      d="M465 560c38-18 77-20 116-5"
      fill="none"
      stroke="#f8fafc"
      stroke-linecap="round"
      stroke-width="30"
    />
  </g>

  <path
    d="M272 772h482"
    fill="none"
    stroke="#334155"
    stroke-linecap="round"
    stroke-width="20"
    opacity="0.75"
  />
  <path
    d="M312 772h158"
    fill="none"
    stroke="#f59e0b"
    stroke-linecap="round"
    stroke-width="20"
  />
</svg>
